<?xml version="1.0" encoding="UTF-8" standalone="no"?>
<!-- Created with Inkscape (http://www.inkscape.org/) -->

<svg
   width="119.30531mm"
   height="88.106216mm"
   viewBox="0 0 119.30531 88.106216"
   version="1.1"
   id="svg1"
   xml:space="preserve"
   xmlns:inkscape="http://www.inkscape.org/namespaces/inkscape"
   xmlns:sodipodi="http://sodipodi.sourceforge.net/DTD/sodipodi-0.dtd"
   xmlns="http://www.w3.org/2000/svg"
   xmlns:svg="http://www.w3.org/2000/svg"><sodipodi:namedview
     id="namedview1"
     pagecolor="#ffffff"
     bordercolor="#000000"
     borderopacity="0.25"
     inkscape:showpageshadow="2"
     inkscape:pageopacity="0.0"
     inkscape:pagecheckerboard="0"
     inkscape:deskcolor="#d1d1d1"
     inkscape:document-units="mm" /><defs
     id="defs1" /><g
     inkscape:label="Layer 1"
     inkscape:groupmode="layer"
     id="layer1"
     transform="translate(-419.09999,-109.5375)"><path
       style="fill:#000000"
       d="m 454.025,196.32467 v -1.31902 l -0.8599,0.52428 c -1.18662,0.7235 -2.72183,0.66736 -4.38266,-0.16027 -1.54127,-0.76804 -2.81309,-2.17332 -3.92841,-4.34062 -0.65842,-1.27946 -0.74895,-1.7426 -0.74987,-3.83638 -7.3e-4,-1.68264 0.1253,-2.6264 0.42959,-3.21685 l 0.43062,-0.83561 -1.29052,-1.27112 c -0.72143,-0.71058 -1.29052,-1.51325 -1.29052,-1.82022 0,-0.30201 0.3461,-0.96133 0.76911,-1.46515 l 0.76911,-0.91605 -1.09984,-0.98468 c -0.60491,-0.54157 -1.23409,-0.98805 -1.39817,-0.99218 -0.16408,-0.004 -0.46174,-0.20478 -0.66146,-0.44589 -0.34231,-0.41324 -2.17832,-1.99214 -6.82224,-5.86686 -3.17312,-2.64754 -3.26633,-2.72629 -4.51818,-3.8176 -0.65324,-0.56947 -1.54721,-1.18561 -1.98659,-1.3692 -1.93889,-0.81011 -5.6088,-5.29495 -6.94242,-8.484 -0.56034,-1.33993 -1.39265,-4.91629 -1.39265,-5.98408 0,-0.51137 0.13719,-0.4423 1.12448,0.56616 1.32746,1.35592 3.87287,3.27145 5.34846,4.02493 1.17326,0.59911 5.25087,2.05364 5.76354,2.05592 0.18218,8.1e-4 0.76858,0.12295 1.30312,0.27142 0.77438,0.21508 1.08556,0.50474 1.5312,1.42531 0.5587,1.15412 5.94141,6.50599 8.98423,8.93275 3.72001,2.96685 5.71324,4.45029 5.97962,4.45029 0.16011,0 1.54536,-1.28363 3.07832,-2.85252 l 2.7872,-2.85252 -0.9049,-1.17876 c -1.43157,-1.86481 -3.70202,-6.04857 -4.60265,-8.48132 -0.64294,-1.73667 -0.85538,-2.80359 -0.9608,-4.82536 -0.0864,-1.65757 -0.0284,-2.80506 0.1607,-3.175 0.1926,-0.37687 0.32081,-3.22349 0.36687,-8.14594 0.0484,-5.17224 0.16625,-7.68399 0.37241,-7.9375 0.16588,-0.20398 0.7955,-1.6393 1.39915,-3.1896 3.33244,-8.55846 10.96959,-15.69573 19.33363,-18.06818 3.42179,-0.97058 5.09585,-1.2058 8.5814,-1.20575 8.19891,1.2e-4 15.0364,2.91094 21.06773,8.96885 3.5569,3.57258 5.8892,7.16086 7.41235,11.40402 0.33955,0.94589 0.80141,1.85889 1.02637,2.02889 0.34945,0.26408 0.42134,1.45866 0.49357,8.20186 0.0697,6.50665 0.15101,7.92997 0.46302,8.10457 0.55971,0.31323 0.48714,3.64472 -0.13213,6.06606 -0.75519,2.95276 -2.78793,6.67158 -6.02495,11.02244 -0.27103,0.36428 0.10672,0.82757 2.56401,3.14463 l 2.88186,2.7174 1.27097,-1.39449 c 0.69904,-0.76697 3.25071,-3.41855 5.67037,-5.8924 5.35749,-5.47746 7.64695,-8.02433 8.8762,-9.87415 0.51442,-0.77412 1.07226,-1.44469 1.23966,-1.49016 4.27565,-1.16137 8.00417,-3.09245 11.06524,-5.73092 0.82525,-0.71132 1.56939,-1.29331 1.65364,-1.29331 0.47072,0 -0.40506,4.29326 -1.32593,6.50002 -1.07322,2.57183 -3.92261,6.16258 -6.60664,8.32557 -0.44535,0.35889 -1.13465,1.08664 -1.53179,1.61722 -0.48131,0.64304 -0.87734,0.92408 -1.18778,0.8429 -0.33626,-0.0879 -2.20124,1.66734 -6.7091,6.31441 -3.43385,3.53991 -6.4781,6.72608 -6.765,7.08038 l -0.52162,0.64418 1.02344,1.29475 c 0.56289,0.71211 1.02344,1.49565 1.02344,1.74119 0,0.47862 -1.08278,1.77393 -2.04102,2.44165 l -0.58581,0.4082 0.56555,1.14308 c 0.37727,0.76252 0.60531,1.82979 0.68496,3.20567 0.10812,1.86777 0.0455,2.22047 -0.66285,3.73421 -0.89848,1.92 -2.87992,4.03947 -4.43822,4.74736 -1.37539,0.62481 -2.9494,0.62254 -4.18229,-0.006 l -0.98199,-0.50065 v 1.2944 1.29439 H 479.02812 454.025 Z m 28.64114,-0.17896 c 3.16508,-0.0956 5.75469,-0.26223 5.75469,-0.37034 0,-0.85893 -3.68999,-1.00788 -28.575,-1.15348 -3.50996,-0.0205 -3.57334,-0.0106 -3.65642,0.57442 -0.0771,0.54313 0.0272,0.59815 1.19062,0.62773 0.70135,0.0178 2.52533,0.11693 4.0533,0.22021 3.84126,0.25965 14.33396,0.30979 21.23281,0.10146 z m 15.59768,-0.26287 c 2.79036,-0.13268 3.65888,-0.25993 3.77117,-0.55255 0.27128,-0.70693 -0.14532,-0.86159 -2.31884,-0.86084 -4.29556,0.001 -12.10598,0.35226 -11.90134,0.53451 0.6972,0.62094 4.96213,1.40048 6.29456,1.15053 0.29104,-0.0546 2.16054,-0.17684 4.15445,-0.27165 z m -44.75307,-2.53144 c 0.56304,-0.61645 0.77883,-1.11938 0.77883,-1.81515 0,-0.52934 0.0757,-1.51484 0.16826,-2.18999 0.20824,-1.51931 -0.22336,-1.62763 -1.61539,-0.40541 -1.29323,1.13547 -1.94782,0.92355 -2.92673,-0.94753 -0.96452,-1.84356 -1.47948,-1.88846 -2.35562,-0.20535 -0.36159,0.69462 -0.65972,1.04379 -0.66653,0.78061 -0.0197,-0.76214 0.75921,-2.04621 1.38073,-2.27612 0.89667,-0.33171 1.50358,-0.0372 2.2015,1.06841 0.35498,0.56233 0.81281,1.02242 1.0174,1.02242 0.20458,0 0.62952,-0.41672 0.9443,-0.92605 0.4014,-0.64947 0.76538,-0.92604 1.21875,-0.92604 0.45045,0 0.72466,-0.20576 0.90446,-0.67868 0.51506,-1.35471 0.48901,-1.38434 -2.52009,-2.86664 -2.54662,-1.25448 -4.24618,-1.04045 -5.5184,0.69496 -0.62312,0.84997 -0.98698,5.02259 -0.46606,5.34453 0.18334,0.11332 0.86015,-0.46296 0.87826,-0.841 0.008,-0.168 0.065,0.19129 0.12134,0.32047 0.0563,0.12918 -0.39669,0.50021 -0.30245,0.88662 0.65927,2.70309 2.83158,4.80484 4.9715,4.81016 0.79873,0.002 1.16824,-0.17393 1.78594,-0.85022 z m 54.83311,0.42622 c 1.74032,-0.87656 3.3603,-2.84057 3.3603,-4.07389 0,-0.15343 -0.29478,-1.15013 -0.25169,-1.22462 0.0215,-0.0373 0.0769,-0.30354 0.16999,-0.10809 0.0931,0.19545 0.28682,0.90156 0.31952,0.92177 0.13077,0.0808 0.31945,-0.66577 0.41921,-1.65913 0.20365,-2.02792 -0.1343,-3.70094 -0.99047,-4.90333 -0.51979,-0.72997 -0.61187,-0.7568 -2.12656,-0.61945 -1.10232,0.1 -2.19479,0.45154 -3.59652,1.15746 -1.99087,1.00262 -2.01293,1.02504 -1.9823,2.01501 0.0373,1.20717 0.0608,1.23438 1.18591,1.37677 0.49071,0.0621 0.93626,0.24509 0.99011,0.40664 0.0538,0.16154 0.38334,0.61315 0.7322,1.00356 l 0.6343,0.70984 1.32767,-1.98424 c 0.42044,-0.62836 0.8532,-0.25199 0.40865,0.58941 -0.67953,1.28611 -1.82422,2.51079 -3.33919,1.56904 -0.75735,-0.4708 -1.43065,-0.80235 -1.49622,-0.73678 -0.18245,0.18245 -0.11483,4.25848 0.079,4.76366 0.43161,1.12475 2.65739,1.55124 4.15609,0.79637 z m 2.90188,-5.68031 c -0.17937,-0.47837 -0.27831,-0.91757 -0.21987,-0.97601 0.18861,-0.18861 0.71447,1.01168 0.62887,1.43545 -0.0488,0.24182 -0.2168,0.0531 -0.409,-0.45944 z m -2.65269,-1.36767 c 0.46345,-0.70201 2.03986,-0.26308 2.48059,0.26797 0.25534,0.30766 0.28566,0.96388 -0.0431,0.44369 -0.19348,-0.30612 -1.5392,-0.77612 -1.77922,-0.53608 -0.65872,0.65872 -1.12662,0.53391 -0.65823,-0.17558 z m -27.05139,6.86804 c 0,-0.0425 -1.24924,-0.72163 -2.77609,-1.50918 l -2.77609,-1.4319 -2.07359,1.01099 c -4.12549,2.01141 -4.14326,1.99475 2.13567,2.00148 3.01956,0.003 5.4901,-0.0289 5.4901,-0.0714 z m -12.43541,-0.96225 c 0.94588,-0.30766 1.92653,-0.67587 2.17922,-0.81826 0.25269,-0.14239 0.60987,-0.25702 0.79375,-0.25475 0.55156,0.007 3.09442,-1.40674 2.95025,-1.64002 -0.28399,-0.4595 -1.74727,-0.17117 -4.89731,0.96496 -1.80118,0.64964 -3.98925,1.48776 -4.86237,1.8625 l -1.5875,0.68134 1.85208,-0.1182 c 1.01865,-0.065 2.62599,-0.36992 3.57188,-0.67757 z m 26.1717,0.68312 c -0.0606,-0.0505 -1.95572,-0.83654 -4.21129,-1.74674 -2.25557,-0.9102 -4.33916,-1.75259 -4.63021,-1.87197 -0.29104,-0.11938 -0.86145,-0.28934 -1.26759,-0.37769 -0.45562,-0.0991 -0.66796,-0.27464 -0.55443,-0.45834 0.11537,-0.18666 0.0644,-0.22382 -0.13651,-0.0996 -0.37801,0.23362 -1.68862,-0.045 -1.51726,-0.32252 0.0648,-0.10487 -0.14177,-0.20618 -0.45892,-0.22513 -1.09566,-0.0655 -7.18952,-3.23315 -10.60416,-5.51221 -3.62312,-2.41819 -5.68593,-4.08626 -8.80287,-7.11833 -1.05077,-1.02216 -1.98498,-1.78398 -2.07602,-1.69294 -0.091,0.091 0.18639,0.67992 0.61651,1.30861 0.43013,0.62869 0.98351,1.53595 1.22973,2.01613 0.56531,1.10245 5.46513,6.1899 7.78931,8.08758 0.96761,0.79005 3.60477,2.51221 5.86034,3.82701 4.06819,2.37139 6.8519,3.52968 9.56837,3.98136 1.33136,0.22138 9.43151,0.40179 9.195,0.2048 z m -32.11345,-1.59272 c 1.42683,-0.37998 6.05843,-2.05733 7.43694,-2.69331 0.45856,-0.21156 1.07661,-0.38465 1.37345,-0.38465 0.81644,0 0.94934,-0.49052 0.18489,-0.68239 -0.36976,-0.0928 -0.67228,-0.27488 -0.67228,-0.40463 0,-0.12974 -0.14883,-0.23739 -0.33073,-0.23922 -1.31149,-0.0132 -9.07619,-8.40062 -10.46806,-11.30761 -0.22645,-0.47295 -0.49747,-0.8599 -0.60228,-0.8599 -0.26934,0 -1.74361,4.16482 -2.47885,7.00279 -0.67318,2.59839 -1.19941,6.34218 -1.20059,8.54148 l -7.4e-4,1.38906 2.71198,-0.003 c 1.49158,-0.002 3.31241,-0.16304 4.04627,-0.35848 z m 38.70043,-0.92151 c 0.22091,-3.07608 -1.47717,-12.40399 -2.81997,-15.49067 l -0.44856,-1.0311 -1.30755,2.22172 c -0.99537,1.69128 -2.1943,3.11096 -5.02164,5.94624 -2.04275,2.04848 -4.2964,4.22137 -5.00811,4.82864 -0.72493,0.61855 -1.11341,1.10414 -0.88334,1.10414 0.22587,0 1.34396,0.39824 2.48464,0.88499 4.45108,1.89934 8.26151,2.8176 11.33439,2.73141 l 1.5875,-0.0445 z m -16.21971,-4.01027 c 2.92528,-2.01264 5.31375,-4.17247 7.77953,-7.03481 1.46795,-1.70403 2.66899,-3.20884 2.66899,-3.34403 0,-0.13518 -1.16085,0.83669 -2.57968,2.15973 -1.41883,1.32303 -2.72709,2.34903 -2.90725,2.27999 -0.18015,-0.069 -0.29921,0.019 -0.26458,0.19569 0.0346,0.17666 -0.0947,0.28849 -0.28742,0.24851 -0.19272,-0.04 -0.28877,0.027 -0.21344,0.14889 0.11466,0.18553 -2.26679,2.07581 -6.67291,5.29662 -0.68227,0.49873 -0.80429,0.70303 -0.52916,0.88601 0.55581,0.36967 1.72605,0.044 3.00592,-0.8366 z m -3.65299,-1.38275 c 1.03829,-0.45758 4.47717,-2.7037 5.80381,-3.79078 0.61089,-0.50058 1.17621,-0.91015 1.25624,-0.91015 0.35114,0 8.07425,-7.93178 8.85692,-9.09622 0.59088,-0.8791 0.954,-1.20474 1.13811,-1.02063 0.31239,0.31239 3.28663,9.1302 3.54607,10.51311 0.19012,1.01343 0.58307,1.15221 1.52148,0.53734 0.96632,-0.63315 5.37505,-1.99207 6.45716,-1.9903 0.54992,8.9e-4 1.34088,0.17949 1.7577,0.39687 1.22582,0.63931 1.30284,0.46951 0.39077,-0.86152 -1.53325,-2.23759 -4.58564,-5.68003 -7.99749,-9.01947 l -3.33557,-3.26478 -1.12549,0.8474 c -2.63721,1.98558 -5.943,4.01225 -8.85135,5.42647 -1.71284,0.83288 -3.53272,1.82367 -4.04419,2.20176 -1.38286,1.02222 -3.66702,2.9076 -5.16513,4.26337 -0.72862,0.65939 -1.85284,1.61561 -2.49828,2.12493 -2.9027,2.29056 -2.87825,2.19906 -0.80716,3.02098 0.65484,0.25988 1.36922,0.57244 1.5875,0.69458 0.54562,0.30531 0.66353,0.29961 1.5089,-0.073 z m -5.43569,-3.14035 c 0.7034,-0.45138 1.21465,-0.92465 1.13611,-1.05173 -0.45321,-0.73331 -9.05851,-6.81762 -11.44397,-8.09137 -1.55704,-0.8314 -3.79041,-2.13357 -4.96304,-2.8937 -1.17264,-0.76014 -2.55531,-1.61979 -3.07261,-1.91034 -0.51729,-0.29054 -1.18268,-0.67949 -1.47865,-0.86432 -0.48569,-0.30332 -0.71842,-0.17043 -2.38915,1.36418 -3.72054,3.41743 -9.57913,10.40339 -9.58018,11.42368 -6e-4,0.58854 0.18491,0.58125 1.43563,-0.0564 0.74873,-0.38172 1.33583,-0.48214 2.21462,-0.37879 1.49772,0.17615 4.13456,1.15763 5.6066,2.08689 0.61723,0.38964 1.20928,0.60901 1.31567,0.48749 0.10639,-0.12153 0.58818,-1.35205 1.07066,-2.73449 0.48247,-1.38245 1.28137,-3.50515 1.77532,-4.7171 0.75003,-1.84025 0.87762,-2.44007 0.77388,-3.63802 -0.0683,-0.78896 -0.0753,-1.43447 -0.0155,-1.43447 0.0598,0 1.92472,1.82114 4.14433,4.04697 3.39187,3.40137 4.53546,4.3616 7.16872,6.01927 1.72318,1.08477 3.50912,2.23 3.96875,2.54496 0.45963,0.31496 0.88479,0.58285 0.94481,0.59531 0.06,0.0125 0.68465,-0.34664 1.38805,-0.79801 z m 5.40977,-4.10806 c 1.43993,-1.2556 2.63807,-2.29739 2.66253,-2.31511 0.0245,-0.0177 -1.9996,-0.0322 -4.49792,-0.0322 -2.49831,0 -5.31629,-0.0852 -6.26217,-0.18938 -1.68215,-0.18522 -1.70242,-0.18013 -0.92605,0.23256 0.43657,0.23206 1.29878,0.83046 1.91604,1.32977 1.96216,1.58723 4.16386,3.23916 4.32944,3.24836 0.088,0.005 1.33819,-1.01841 2.77813,-2.274 z m -36.16706,-2.89052 c 0.35079,-0.51505 0.96343,-1.21046 1.36143,-1.54535 l 0.72362,-0.60889 -0.77952,-0.83409 c -0.42873,-0.45875 -0.87237,-0.83409 -0.98584,-0.83409 -0.11348,0 -0.57292,0.50602 -1.02099,1.12448 -0.44807,0.61847 -1.08495,1.41034 -1.41528,1.75973 l -0.60062,0.63525 0.77512,0.62021 c 1.02025,0.81634 1.18878,0.78881 1.94208,-0.31725 z m 67.76732,-1.15584 c 0.5764,-0.57067 1.04801,-1.12665 1.04801,-1.23552 0,-0.16482 -2.91672,-3.01856 -3.08518,-3.01856 -0.0299,0 -0.48514,0.52567 -1.0116,1.16814 l -0.9572,1.16814 1.37532,1.47769 c 0.75643,0.81274 1.42197,1.4777 1.47898,1.4777 0.057,0 0.57527,-0.46691 1.15167,-1.03759 z m -28.93025,-0.52983 c 3.44507,-0.71095 8.34851,-3.09241 12.25117,-5.95006 4.11829,-3.01553 7.18347,-6.54443 9.01157,-10.37486 0.82453,-1.72766 1.83635,-5.25421 1.83635,-6.40036 0,-0.60737 -0.037,-0.62761 -0.46302,-0.25314 -2.81912,2.47806 -13.33476,5.69168 -21.54819,6.58521 -3.63375,0.39531 -13.34207,0.15626 -16.61795,-0.40918 -6.52565,-1.12638 -12.96397,-3.16573 -16.7349,-5.30081 l -2.05052,-1.16099 v 0.71331 c 0,1.18545 1.03488,4.54913 2.04774,6.6558 1.06704,2.21935 3.9231,6.17273 5.66881,7.8468 3.84323,3.68551 10.75129,7.16304 16.22824,8.16932 2.83683,0.52122 7.52357,0.46652 10.3707,-0.12104 z m -41.16238,-1.21801 c 0.78261,-0.80438 1.45957,-1.56915 1.50435,-1.69947 0.0448,-0.13033 -0.35888,-0.63306 -0.89702,-1.11718 -0.53815,-0.48412 -1.13184,-1.02904 -1.3193,-1.21094 -0.53953,-0.52352 -0.82257,-0.39882 -1.46906,0.64722 -0.33242,0.53788 -0.95772,1.38037 -1.38956,1.8722 l -0.78516,0.89425 1.16955,1.02693 c 0.64325,0.56482 1.30314,1.03202 1.46641,1.03822 0.16327,0.006 0.93718,-0.64685 1.71979,-1.45123 z m 73.15806,-4.00865 c -0.78882,-0.75798 -1.4961,-1.53369 -1.57175,-1.72381 -0.09,-0.22608 -0.6225,0.1488 -1.53945,1.08371 l -1.40189,1.42937 1.71085,1.53655 1.71086,1.53654 1.26279,-1.2421 1.26279,-1.2421 z m -75.58137,-1.02219 c 0.005,-0.1516 -0.52853,-0.80395 -1.18648,-1.44968 l -1.19626,-1.17404 -0.68495,0.78823 c -0.37672,0.43352 -1.108,1.30045 -1.62506,1.92652 l -0.94011,1.1383 1.29997,1.15897 1.29997,1.15897 1.51157,-1.63581 c 0.83136,-0.8997 1.51597,-1.75985 1.52135,-1.91146 z m 79.42116,0.19167 1.227,-1.27174 -1.74468,-1.79683 -1.74469,-1.79684 -1.00943,1.15178 c -1.69039,1.92874 -1.69162,1.84032 0.0489,3.50048 0.85786,0.81826 1.65788,1.48711 1.77783,1.48632 0.11994,-7.8e-4 0.77023,-0.57371 1.44508,-1.27317 z m -83.48116,-2.38638 1.01833,-0.83939 -1.41417,-1.38783 c -0.86277,-0.84672 -1.46234,-1.26039 -1.53774,-1.06095 -0.068,0.17979 -0.57753,0.83463 -1.13235,1.45521 -0.55481,0.62057 -1.24303,1.4182 -1.52936,1.7725 l -0.52061,0.64418 1.34476,1.09972 1.34476,1.09972 0.70402,-0.97188 c 0.38722,-0.53454 1.16228,-1.34961 1.72236,-1.81128 z m -3.89633,-2.18775 1.69117,-2.11376 -0.74849,-0.78126 c -0.41167,-0.42969 -0.83831,-0.78125 -0.9481,-0.78125 -0.10979,0 -0.76163,0.74414 -1.44852,1.65365 -2.01817,2.67221 -2.29863,2.75373 -0.41652,0.12107 0.49858,-0.69739 0.85381,-1.32067 0.78942,-1.38507 -0.0644,-0.0644 -0.69251,0.66664 -1.39583,1.62451 -1.01722,1.38538 -1.20293,1.78959 -0.90799,1.97632 0.20392,0.12911 0.25919,0.23657 0.12283,0.2388 -0.13637,0.002 0.0943,0.36124 0.51252,0.7978 0.41825,0.43657 0.82748,0.78682 0.9094,0.77836 0.0819,-0.008 0.90996,-0.9666 1.84011,-2.12917 z m 89.76646,1.89257 c 0.0485,-0.1386 0.67654,-0.86471 1.39563,-1.6136 l 1.30743,-1.3616 -1.70431,-1.54061 -1.70431,-1.54061 -1.38906,1.35923 c -0.76399,0.74758 -1.38906,1.5618 -1.38906,1.80937 0,0.40597 2.7931,3.12703 3.21909,3.13607 0.097,0.002 0.21608,-0.10965 0.26459,-0.24825 z m -93.70659,-2.94642 c 0.50932,-0.72685 1.55111,-1.86158 2.3151,-2.52161 0.76398,-0.66003 1.38906,-1.30046 1.38906,-1.42316 0,-0.12271 -0.38695,-0.3033 -0.85989,-0.40132 -1.48683,-0.30816 -5.54632,-2.00404 -7.47173,-3.12137 -1.01713,-0.59025 -2.43255,-1.61682 -3.14537,-2.28126 -1.12128,-1.04518 -1.26959,-1.11889 -1.09992,-0.54662 0.43946,1.48222 2.58848,5.71347 3.67559,7.23691 1.34836,1.88956 3.65547,4.41036 4.02001,4.39237 0.13811,-0.007 0.66782,-0.60709 1.17715,-1.33394 z m 98.58163,-1.80846 c 0.54045,0.44853 1.01699,-0.0562 0.8127,-0.86073 -0.0858,-0.33808 -0.83407,-1.41984 -1.66272,-2.40391 -1.69965,-2.01842 -1.61543,-2.02242 -3.34517,0.15883 l -0.80526,1.01545 1.03284,0.93517 c 0.56807,0.51434 1.50734,1.28513 2.08727,1.71286 l 1.05442,0.77769 0.21548,-0.83157 c 0.18119,-0.69922 0.27835,-0.7794 0.61044,-0.50379 z m 5.52534,-4.38583 c 1.62614,-2.27935 2.6396,-4.1854 3.56684,-6.70831 l 0.81237,-2.21039 -1.26028,1.04224 c -2.61313,2.16103 -6.31122,4.24974 -9.92539,5.60595 -0.40018,0.15017 -0.7276,0.39915 -0.7276,0.5533 0,0.15415 1.04179,1.3414 2.3151,2.63834 l 2.3151,2.35808 0.88565,-0.84586 c 0.48711,-0.46522 1.3953,-1.56023 2.01821,-2.43335 z m -65.06345,-3.96501 c 1.2141,-0.71151 2.23147,-2.38578 2.23147,-3.67229 0,-1.60434 -1.80941,-3.62646 -3.70069,-4.13573 -2.66022,-0.71632 -5.29514,1.33005 -5.29514,4.11238 0,3.40047 3.76141,5.45548 6.76436,3.69564 z m 25.704,0.2161 c 1.12626,-0.53444 2.38079,-2.1923 2.61873,-3.46064 0.4062,-2.16524 -2.10345,-4.829 -4.54962,-4.829 -1.40049,0 -3.47632,1.32036 -4.15972,2.64584 -0.94811,1.8389 -0.0647,4.37728 1.92508,5.53163 1.14493,0.66421 2.90246,0.71154 4.16553,0.11217 z m -12.83253,-8.2949 c 4.81378,-0.47731 7.01793,-0.94946 11.73727,-2.51427 5.60344,-1.85795 9.29695,-3.81741 12.1461,-6.44366 1.47272,-1.35751 1.48028,-1.61492 0.14543,-4.94855 -2.24745,-5.61273 -6.34084,-10.4744 -11.838,-14.05982 -2.65053,-1.72876 -4.25164,-2.4722 -7.35267,-3.41406 -2.21783,-0.67361 -2.71718,-0.72397 -7.27604,-0.73384 -5.65719,-0.0122 -7.27235,0.31312 -11.50324,2.31732 -3.57119,1.69169 -5.49922,3.08243 -8.4728,6.11169 -2.93119,2.98606 -4.86034,5.92451 -6.24239,9.50828 -1.34645,3.49147 -1.33791,3.62947 0.32165,5.1948 3.86424,3.6448 8.46591,5.85857 16.20046,7.79367 2.34931,0.58778 6.74836,1.28972 8.95923,1.42959 0.24944,0.0158 1.67819,-0.0927 3.175,-0.24115 z m -0.0567,-1.0148 c 0,-0.46227 3.21079,-3.71024 4.46058,-4.51223 2.07907,-1.33414 7.8695,-3.24213 9.6449,-3.17807 0.47642,0.0172 0.43839,0.0701 -0.21486,0.29911 -0.43656,0.15302 -0.97234,0.42741 -1.19063,0.60974 -0.21828,0.18234 -0.93265,0.59908 -1.58749,0.92609 -0.65485,0.32701 -2.26219,1.31449 -3.57188,2.19441 -2.01264,1.3522 -6.82079,3.88726 -7.3728,3.88726 -0.0923,0 -0.16782,-0.10184 -0.16782,-0.22631 z m -7.33336,-0.861 c -0.75913,-0.29182 -2.86117,-1.50601 -4.67119,-2.6982 -1.81003,-1.19218 -3.91035,-2.50212 -4.66738,-2.91096 -0.75704,-0.40885 -1.31359,-0.8062 -1.23678,-0.88301 0.345,-0.345 5.3897,1.03573 7.24801,1.98377 1.59982,0.81616 3.55658,2.47462 4.52557,3.83566 0.9801,1.37662 0.83897,1.45586 -1.19823,0.67274 z"
       id="path1"
       sodipodi:nodetypes="ccssssscssscscsssssssssssssscssssssssssssssssscsssssssssssscssscsssssccccccssssssssscssssssssssssssssssssssssssssssssssssscsssssssssssssssssscscsssscssscsscssssssssssssssssccsssssssssccccsscsssssscssssssssssssssssssssssscssssssssscsssssssssssssssssssscsssssscssscsssscsssssscssscssssssscssssccssssscsccssscccccssscsscccssscccsssssccsssscccscscssssssscscscscccssscsssssssscssssscsscsssscsssscsssssssssssssssssssssssssssssssssssssssssss"
       inkscape:export-filename="path1.svg"
       inkscape:export-xdpi="96"
       inkscape:export-ydpi="96" /></g></svg>
